<?xml version="1.0" encoding="UTF-8"?><svg id="Layer_2" xmlns="http://www.w3.org/2000/svg" width="749" height="287" viewBox="0 0 749 287"><defs><style>.cls-1{fill:#fff;}</style></defs><polygon class="cls-1" points="238.82 233.38 234.23 172.15 273.84 190.01 244.79 17.95 282.4 35.7 305.82 18.26 297.82 191.36 333.52 162.1 342.07 225.12 295.07 224.04 305.41 252.77 267.44 250.63 274.12 221.3 238.82 233.38"/><polygon class="cls-1" points="359.36 41.35 344.36 16.43 384.36 34.23 384.36 120.55 384.36 121.44 421.36 121.44 421.36 34.23 421.32 33.96 461.13 16.25 461.29 16.56 446.36 41.35 446.36 244.25 446.34 244.57 461.26 269.34 461.1 269.64 421.76 252.15 421.83 251.67 421.83 164.46 384.83 164.46 384.83 165.35 384.83 251.63 384.34 251.63 344.34 269.43 344.18 269.13 359.1 244.35 359.36 243.36 359.36 41.35"/><polygon class="cls-1" points="132.68 46.24 112.68 69.69 104.68 61.05 59.68 51.18 52.68 100.55 96.18 111.66 57.68 133.87 61.68 189.41 18.68 263.47 38.68 191.88 16.68 9.21 100.68 28.96 103.68 11.68 132.68 46.24"/><path class="cls-1" d="M739.64,242.5l-55-61.04h15l-55-54.26,27.25-34.59L572.64,13.26l27,62.4,10,168.2,15,43.41,7-39.34-8-84.1,40,27.13,76,51.54Zm-118.5-108.51l5-55.61,20,20.35-25,35.27Z"/><polygon class="cls-1" points="533.79 28.18 466.54 134.04 549.23 260.76 578.07 270.9 558.97 230.15 512.82 162.48 554.39 164.65 572.37 144.81 557.82 122.56 507.64 126.32 551.93 44.02 561.79 13.78 533.79 28.18"/><path class="cls-1" d="M184.38,29.86l-28.81-12.47-47.39,219.04,9.89,31.51,21.11-31.51,15-95.15,16,11.99,9.62-11.99,13.78,87.43,15.81,20.79,13.19-27.52L184.38,29.86Zm-14.81,98.61l-14-18.51,22-8.64-8,27.15Z"/></svg>