<?xml version="1.0" encoding="UTF-8"?><svg id="Layer_2" xmlns="http://www.w3.org/2000/svg" width="756" height="291" viewBox="0 0 756 291"><polygon points="248.24 236.92 243.65 175.69 283.27 193.55 254.21 21.49 291.83 39.25 315.25 21.8 307.25 194.9 342.95 165.64 351.5 228.67 304.5 227.58 314.84 256.31 276.86 254.17 283.55 224.84 248.24 236.92"/><polygon points="368.79 44.89 353.79 19.98 393.79 37.78 393.79 124.1 393.79 124.99 430.79 124.99 430.79 37.78 430.75 37.51 470.56 19.8 470.72 20.1 455.79 44.89 455.79 247.79 455.77 248.11 470.69 272.89 470.53 273.19 431.19 255.69 431.26 255.19 431.26 167.98 394.26 167.98 394.26 168.87 394.26 255.18 393.77 255.18 353.77 272.98 353.61 272.67 368.53 247.9 368.79 246.9 368.79 44.89"/><polygon points="142.11 49.78 122.11 73.23 114.11 64.59 69.11 54.72 62.11 104.09 105.61 115.19 67.11 137.41 71.11 192.95 28.11 267 48.11 195.42 26.11 12.75 110.11 32.5 113.11 15.22 142.11 49.78"/><path d="M749.07,246.04l-55-61.04h15l-55-54.26,27.25-34.59-99.25-79.35,27,62.4,10,168.2,15,43.41,7-39.34-8-84.1,40,27.13,76,51.54Zm-118.5-108.51l5-55.61,20,20.35-25,35.27Z"/><polygon points="543.22 31.72 475.97 137.59 558.66 264.3 587.5 274.44 568.4 233.7 522.25 166.03 563.82 168.2 581.8 148.35 567.25 126.1 517.07 129.86 561.36 47.56 571.22 17.32 543.22 31.72"/><path d="M193.81,33.41l-28.81-12.47-47.39,219.04,9.89,31.51,21.11-31.51,15-95.15,16,11.99,9.62-11.99,13.78,87.43,15.81,20.79,13.19-27.52L193.81,33.41Zm-14.81,98.61l-14-18.51,22-8.64-8,27.15Z"/></svg>